<svg width="135" height="24" viewBox="0 0 135 24" fill="none" xmlns="http://www.w3.org/2000/svg">
<path fill-rule="evenodd" clip-rule="evenodd" d="M18.3871 18.3615H14.9204V0H18.3871V18.3615ZM8.00067 15.2973C7.60709 15.4817 7.18421 15.5736 6.73198 15.5736C6.27975 15.5736 5.85683 15.5026 5.46325 15.3606C5.06967 15.2179 4.72625 15.0002 4.43367 14.707C4.14044 14.4144 3.90977 14.054 3.74295 13.6272C3.57548 13.1998 3.49143 12.6935 3.49143 12.1077C3.49143 11.488 3.57548 10.9562 3.74295 10.5125C3.90977 10.0687 4.14044 9.70836 4.43367 9.43207C4.72625 9.15578 5.06967 8.95509 5.46325 8.82932C5.85683 8.70421 6.27975 8.641 6.73198 8.641C7.18421 8.641 7.60709 8.73354 8.00067 8.9173C8.3936 9.10171 8.73702 9.34865 9.03025 9.65817C9.32283 9.96835 9.55805 10.3365 9.73334 10.7634C9.90928 11.1908 9.99727 11.6385 9.99727 12.1077C9.99727 12.5931 9.90928 13.0453 9.73334 13.4637C9.55805 13.8827 9.32283 14.2469 9.03025 14.5565C8.73702 14.8666 8.3936 15.1136 8.00067 15.2973ZM9.64604 6.06644C8.89211 5.72368 8.0717 5.55163 7.18419 5.55163C6.39703 5.55163 5.70176 5.64351 5.09966 5.82792C4.49625 6.01233 3.95212 6.32187 3.46665 6.75716L2.96425 5.90285H0V23.3352H3.46665V17.2816C3.85176 17.6836 4.38743 18.0147 5.07424 18.274C5.7604 18.5333 6.46414 18.6636 7.18419 18.6636C8.0717 18.6636 8.89211 18.4916 9.64604 18.1482C10.3993 17.8054 11.0483 17.3363 11.5924 16.742C12.1366 16.1471 12.5634 15.4524 12.8735 14.6568C13.1831 13.8618 13.3382 13.0115 13.3382 12.1077C13.3382 11.2032 13.1831 10.3535 12.8735 9.55783C12.5634 8.76284 12.1366 8.06758 11.5924 7.47329C11.0483 6.87901 10.3993 6.40984 9.64604 6.06644ZM28.4089 5.90305H31.8755V18.3621H28.9113L28.4089 17.4075C28.0068 17.6923 27.5507 17.9223 27.0398 18.0983C26.5289 18.2742 25.9803 18.3621 25.3945 18.3621C24.9422 18.3621 24.4274 18.295 23.8494 18.1608C23.2721 18.0272 22.7319 17.7757 22.2295 17.4075C21.7271 17.0394 21.3042 16.5285 20.9614 15.8749C20.618 15.222 20.446 14.3768 20.446 13.3381V5.90305H23.9127V13.1928C23.9127 13.5773 23.9752 13.9031 24.1016 14.1702C24.228 14.4374 24.3968 14.6505 24.6066 14.8088C24.8171 14.9678 25.0576 15.0845 25.3273 15.1594C25.5964 15.235 25.874 15.2721 26.1607 15.2721C26.3797 15.2721 26.6195 15.235 26.8808 15.1594C27.1415 15.0845 27.3858 14.9639 27.6132 14.7965C27.8406 14.629 28.0303 14.412 28.1814 14.1448C28.3333 13.8777 28.4089 13.5603 28.4089 13.1928V5.90305ZM62.1483 18.6564V6.2139H59.1631L58.8119 7.4431C58.3771 6.89122 57.8252 6.48985 57.1562 6.23899C56.4873 5.98813 55.7514 5.8627 54.9487 5.8627C54.0623 5.8627 53.2429 6.0383 52.4903 6.3895C51.7545 6.72398 51.1106 7.19224 50.5587 7.7943C50.0068 8.37963 49.572 9.07367 49.2543 9.87641C48.9532 10.6624 48.8027 11.507 48.8027 12.4101C48.8027 13.3131 48.9532 14.1661 49.2543 14.9688C49.572 15.7548 50.0068 16.4488 50.5587 17.0509C51.1106 17.6362 51.7545 18.1045 52.4903 18.4557C53.2429 18.7902 54.0623 18.9574 54.9487 18.9574C55.6845 18.9574 56.3869 18.8487 57.0559 18.6313C57.7416 18.4139 58.3269 17.9791 58.8119 17.3268L59.1631 18.6564H62.1483ZM58.4105 10.8297C58.5945 11.2645 58.6865 11.808 58.6865 12.4602C58.6697 13.6142 58.3436 14.4754 57.7081 15.044C57.0893 15.5959 56.3284 15.8719 55.4253 15.8719C54.9738 15.8719 54.5473 15.7799 54.146 15.5959C53.7613 15.412 53.4185 15.1695 53.1174 14.8684C52.8164 14.5507 52.5823 14.1828 52.4151 13.7647C52.2478 13.3466 52.1642 12.895 52.1642 12.4101C52.1642 11.9418 52.2478 11.4986 52.4151 11.0805C52.5823 10.6457 52.8164 10.2778 53.1174 9.97675C53.4185 9.659 53.7613 9.40814 54.146 9.22418C54.5473 9.04022 54.9738 8.94824 55.4253 8.94824C55.8769 8.94824 56.295 9.01513 56.6796 9.14892C57.081 9.26599 57.4238 9.46667 57.7081 9.75098C58.0091 10.0186 58.2433 10.3781 58.4105 10.8297ZM77.1093 6.2139H74.1492L73.6475 7.16716C73.196 6.71562 72.6524 6.3895 72.0169 6.18882C71.3814 5.97141 70.6707 5.8627 69.8847 5.8627C69.0485 5.8627 68.2708 6.02994 67.5517 6.36442C66.8493 6.68217 66.2389 7.12535 65.7204 7.69396C65.202 8.24584 64.7923 8.89807 64.4912 9.65064C64.2069 10.4032 64.0648 11.2059 64.0648 12.0589C64.0648 12.9118 64.2069 13.7229 64.4912 14.4922C64.7923 15.2447 65.202 15.9053 65.7204 16.4739C66.2389 17.0258 66.8493 17.469 67.5517 17.8035C68.2708 18.1212 69.0485 18.2801 69.8847 18.2801C70.6372 18.2801 71.3313 18.1547 71.9668 17.9038C72.6023 17.6362 73.1625 17.285 73.6475 16.8502V17.1011C73.6475 17.7867 73.5388 18.3637 73.3214 18.832C73.1207 19.317 72.8364 19.7183 72.4685 20.0361C72.1173 20.3538 71.6992 20.5796 71.2142 20.7134C70.7292 20.8639 70.2108 20.9392 69.6589 20.9392C69.2408 20.9392 68.8227 20.8974 68.4046 20.8137C68.0032 20.7468 67.6186 20.6465 67.2507 20.5127C66.8995 20.3789 66.5817 20.2201 66.2974 20.0361C66.0298 19.8521 65.8208 19.6431 65.6703 19.4089V22.645C66.2723 22.9962 66.9496 23.2721 67.7022 23.4728C68.4548 23.6735 69.2575 23.7738 70.1104 23.7738C71.1138 23.7738 72.0671 23.6401 72.9702 23.3725C73.89 23.1049 74.7178 22.6115 75.4537 21.8924C75.855 21.4911 76.1644 21.0562 76.3818 20.588C76.616 20.1197 76.7832 19.5845 76.8835 18.9825C76.9839 18.3972 77.0424 17.7366 77.0591 17.0007C77.0926 16.2482 77.1093 15.3952 77.1093 14.442V6.2139ZM71.9668 14.9186C71.5821 15.1026 71.1222 15.1946 70.587 15.1946C70.1522 15.1946 69.7509 15.1193 69.3829 14.9688C69.015 14.8016 68.6889 14.5758 68.4046 14.2915C68.137 14.0072 67.9196 13.6811 67.7524 13.3131C67.6019 12.9285 67.5266 12.5188 67.5266 12.0839C67.5266 11.6491 67.6019 11.2478 67.7524 10.8798C67.9196 10.4952 68.137 10.1607 68.4046 9.87641C68.6889 9.5921 69.015 9.36633 69.3829 9.1991C69.7509 9.03186 70.1522 8.94824 70.587 8.94824C71.1055 8.94824 71.557 9.04022 71.9417 9.22418C72.3263 9.40814 72.6441 9.65064 72.8949 9.95166C73.1458 10.236 73.3297 10.5704 73.4468 10.9551C73.5806 11.323 73.6475 11.6993 73.6475 12.0839C73.6475 12.4351 73.589 12.7947 73.4719 13.1626C73.3548 13.5305 73.1709 13.865 72.92 14.1661C72.6692 14.4671 72.3514 14.7179 71.9668 14.9186ZM85.407 5.8627C86.3435 5.8627 87.1964 6.05503 87.9657 6.43967C88.735 6.8076 89.3956 7.30095 89.9475 7.91973C90.4994 8.52178 90.9258 9.22418 91.2268 10.0269C91.5279 10.8129 91.6784 11.624 91.6784 12.4602C91.6784 12.9619 91.6115 13.4971 91.4777 14.0657H82.5974C82.9319 14.6343 83.4085 15.1193 84.0273 15.5207C84.646 15.9053 85.315 16.0976 86.0341 16.0976C86.7532 16.0976 87.3804 16.0391 87.9155 15.922C88.4674 15.805 88.9859 15.6545 89.4708 15.4705L90.6248 17.6028C90.006 18.0376 89.2952 18.3721 88.4925 18.6062C87.7065 18.8403 86.8619 18.9574 85.9589 18.9574C84.9722 18.9574 84.0524 18.7902 83.1994 18.4557C82.3465 18.1045 81.6023 17.6362 80.9668 17.0509C80.3313 16.4656 79.8296 15.7715 79.4617 14.9688C79.0938 14.1661 78.9098 13.3131 78.9098 12.4101C78.9098 11.5237 79.077 10.6875 79.4115 9.90149C79.746 9.09875 80.2059 8.40472 80.7912 7.81938C81.3933 7.21733 82.0873 6.7407 82.8733 6.3895C83.6593 6.0383 84.5039 5.8627 85.407 5.8627ZM88.2417 11.3815C88.041 10.6624 87.6814 10.0771 87.163 9.62555C86.6445 9.17401 86.0592 8.94824 85.407 8.94824C84.738 8.94824 84.1276 9.17401 83.5757 9.62555C83.0406 10.0771 82.6726 10.6624 82.472 11.3815H88.2417ZM102.207 6.41459C101.639 6.2808 101.12 6.2139 100.652 6.2139C100.067 6.2139 99.5233 6.30588 99.0216 6.48985C98.5199 6.65708 98.0684 6.88285 97.667 7.16716L97.1653 6.2139H94.2052V18.6564H97.667V11.3565C97.667 10.9885 97.7422 10.6708 97.8928 10.4032C98.0433 10.1356 98.2272 9.91822 98.4446 9.75098C98.6788 9.58374 98.9213 9.46667 99.1721 9.39978C99.4397 9.31616 99.6822 9.27435 99.8996 9.27435C100.167 9.27435 100.435 9.31616 100.702 9.39978C100.97 9.46667 101.204 9.58374 101.405 9.75098C101.622 9.90149 101.789 10.1105 101.906 10.3781C102.04 10.6457 102.107 10.9718 102.107 11.3565V18.6564H105.594V11.231C105.594 10.1942 105.418 9.34961 105.067 8.69738C104.733 8.04516 104.315 7.53508 103.813 7.16716C103.311 6.79923 102.776 6.54838 102.207 6.41459ZM113.873 8.94824C113.455 8.94824 113.062 9.04858 112.694 9.24926C112.326 9.43323 112 9.69245 111.715 10.0269C111.448 10.3447 111.23 10.721 111.063 11.1558C110.913 11.5906 110.837 12.0589 110.837 12.5606C110.837 13.0623 110.913 13.5222 111.063 13.9403C111.23 14.3417 111.448 14.6928 111.715 14.9939C112 15.2782 112.326 15.504 112.694 15.6712C113.062 15.8384 113.455 15.922 113.873 15.922C114.391 15.922 114.893 15.805 115.378 15.5708C115.88 15.32 116.306 14.9772 116.657 14.5423L118.789 16.6495C118.204 17.3519 117.485 17.9122 116.632 18.3303C115.779 18.7484 114.859 18.9574 113.873 18.9574C112.97 18.9574 112.125 18.7902 111.339 18.4557C110.553 18.1045 109.867 17.6362 109.282 17.0509C108.697 16.4488 108.228 15.7548 107.877 14.9688C107.543 14.1661 107.376 13.3131 107.376 12.4101C107.376 11.507 107.543 10.6624 107.877 9.87641C108.228 9.07367 108.697 8.37963 109.282 7.7943C109.867 7.19224 110.553 6.72398 111.339 6.3895C112.125 6.0383 112.97 5.8627 113.873 5.8627C114.893 5.8627 115.838 6.08011 116.707 6.51493C117.577 6.94975 118.313 7.54344 118.915 8.29601L116.507 10.1523C116.022 9.70081 115.579 9.39142 115.177 9.22418C114.793 9.04022 114.358 8.94824 113.873 8.94824ZM134.058 6.2139H130.27L127.335 12.7111L124.099 6.2139H120.236L125.504 16.775L122.418 23.6233H126.206L134.058 6.2139Z" fill="white"/>
<path fill-rule="evenodd" clip-rule="evenodd" d="M40.1984 9.79523L38.1789 11.8349L33.5208 7.13045L35.5403 5.09082L40.1984 9.79523Z" fill="#FFDA00"/>
<path fill-rule="evenodd" clip-rule="evenodd" d="M41.2563 9.79523L43.2759 11.8349L47.934 7.13045L45.9145 5.09082L41.2563 9.79523Z" fill="#FFDA00"/>
<path fill-rule="evenodd" clip-rule="evenodd" d="M41.2563 14.9322L43.2759 12.8926L47.934 17.5969L45.9145 19.6366L41.2563 14.9322Z" fill="#FFDA00"/>
<path fill-rule="evenodd" clip-rule="evenodd" d="M40.1984 14.9322L38.1789 12.8926L33.5208 17.5969L35.5403 19.6366L40.1984 14.9322Z" fill="#FFDA00"/>
</svg>
